<svg xmlns="http://www.w3.org/2000/svg" xmlns:xlink="http://www.w3.org/1999/xlink" xmlns:s="https://github.com/nturley/netlistsvg" width="323" height="188.5">
  <style>svg {
    stroke:#000;
    fill:none;
  }
  text {
    fill:#000;
    stroke:none;
    font-size:10px;
    font-weight: bold;
    font-family: "Courier New", monospace;
  }
  .nodelabel {
    text-anchor: middle;
  }
  .inputPortLabel {
    text-anchor: end;
  }
  .splitjoinBody {
    fill:#000;
  }</style>
  <g s:type="and" transform="translate(146,12)" s:width="30" s:height="25" id="cell_$and$code/add.sv:13$1">
    <s:alias val="$and"/>
    <s:alias val="$logic_and"/>
    <s:alias val="$_AND_"/>
    <path d="M0,0 L0,25 L15,25 A15 12.5 0 0 0 15,0 Z" class="cell_$and$code/add.sv:13$1"/>
    <g s:x="0" s:y="5" s:pid="A"/>
    <g s:x="0" s:y="20" s:pid="B"/>
    <g s:x="30" s:y="12.5" s:pid="Y"/>
  </g>
  <g s:type="and" transform="translate(146,72)" s:width="30" s:height="25" id="cell_$and$code/add.sv:13$3">
    <s:alias val="$and"/>
    <s:alias val="$logic_and"/>
    <s:alias val="$_AND_"/>
    <path d="M0,0 L0,25 L15,25 A15 12.5 0 0 0 15,0 Z" class="cell_$and$code/add.sv:13$3"/>
    <g s:x="0" s:y="5" s:pid="A"/>
    <g s:x="0" s:y="20" s:pid="B"/>
    <g s:x="30" s:y="12.5" s:pid="Y"/>
  </g>
  <g s:type="or" transform="translate(214,19.5)" s:width="30" s:height="25" id="cell_$or$code/add.sv:13$4">
    <s:alias val="$or"/>
    <s:alias val="$logic_or"/>
    <s:alias val="$_OR_"/>
    <path d="M0,25 L0,25 L15,25 A15 12.5 0 0 0 15,0 L0,0" class="cell_$or$code/add.sv:13$4"/>
    <path d="M0,0 A30 25 0 0 1 0,25" class="cell_$or$code/add.sv:13$4"/>
    <g s:x="3" s:y="5" s:pid="A"/>
    <g s:x="3" s:y="20" s:pid="B"/>
    <g s:x="30" s:y="12.5" s:pid="Y"/>
  </g>
  <g s:type="reduce_xor" transform="translate(77,64.5)" s:width="33" s:height="25" id="cell_$xor$code/add.sv:13$2">
    <s:alias val="$xor"/>
    <s:alias val="$reduce_xor"/>
    <s:alias val="$_XOR_"/>
    <path d="M3,0 A30 25 0 0 1 3,25 A30 25 0 0 0 33,12.5 A30 25 0 0 0 3,0" class="cell_$xor$code/add.sv:13$2"/>
    <path d="M0,0 A30 25 0 0 1 0,25" class="cell_$xor$code/add.sv:13$2"/>
    <g s:x="3" s:y="5" s:pid="A"/>
    <g s:x="3" s:y="20" s:pid="B"/>
    <g s:x="33" s:y="12.5" s:pid="Y"/>
  </g>
  <g s:type="reduce_xor" transform="translate(145,139.5)" s:width="33" s:height="25" id="cell_$xor$code/add.sv:14$5">
    <s:alias val="$xor"/>
    <s:alias val="$reduce_xor"/>
    <s:alias val="$_XOR_"/>
    <path d="M3,0 A30 25 0 0 1 3,25 A30 25 0 0 0 33,12.5 A30 25 0 0 0 3,0" class="cell_$xor$code/add.sv:14$5"/>
    <path d="M0,0 A30 25 0 0 1 0,25" class="cell_$xor$code/add.sv:14$5"/>
    <g s:x="3" s:y="5" s:pid="A"/>
    <g s:x="3" s:y="20" s:pid="B"/>
    <g s:x="33" s:y="12.5" s:pid="Y"/>
  </g>
  <g s:type="reduce_xor" transform="translate(213,147)" s:width="33" s:height="25" id="cell_$xor$code/add.sv:14$6">
    <s:alias val="$xor"/>
    <s:alias val="$reduce_xor"/>
    <s:alias val="$_XOR_"/>
    <path d="M3,0 A30 25 0 0 1 3,25 A30 25 0 0 0 33,12.5 A30 25 0 0 0 3,0" class="cell_$xor$code/add.sv:14$6"/>
    <path d="M0,0 A30 25 0 0 1 0,25" class="cell_$xor$code/add.sv:14$6"/>
    <g s:x="3" s:y="5" s:pid="A"/>
    <g s:x="3" s:y="20" s:pid="B"/>
    <g s:x="33" s:y="12.5" s:pid="Y"/>
  </g>
  <g s:type="inputExt" transform="translate(80,134.5)" s:width="30" s:height="20" id="cell_c">
    <text x="15" y="-4" class="nodelabel cell_c" s:attribute="ref">c</text>
    <s:alias val="$_inputExt_"/>
    <path d="M0,0 L0,20 L15,20 L30,10 L15,0 Z" class="cell_c"/>
    <g s:x="28" s:y="10" s:pid="Y"/>
  </g>
  <g s:type="inputExt" transform="translate(12,59.5)" s:width="30" s:height="20" id="cell_a">
    <text x="15" y="-4" class="nodelabel cell_a" s:attribute="ref">a</text>
    <s:alias val="$_inputExt_"/>
    <path d="M0,0 L0,20 L15,20 L30,10 L15,0 Z" class="cell_a"/>
    <g s:x="28" s:y="10" s:pid="Y"/>
  </g>
  <g s:type="inputExt" transform="translate(12,124.5)" s:width="30" s:height="20" id="cell_b">
    <text x="15" y="-4" class="nodelabel cell_b" s:attribute="ref">b</text>
    <s:alias val="$_inputExt_"/>
    <path d="M0,0 L0,20 L15,20 L30,10 L15,0 Z" class="cell_b"/>
    <g s:x="28" s:y="10" s:pid="Y"/>
  </g>
  <g s:type="outputExt" transform="translate(281,22)" s:width="30" s:height="20" id="cell_c_out">
    <text x="15" y="-4" class="nodelabel cell_c_out" s:attribute="ref">c_out</text>
    <s:alias val="$_outputExt_"/>
    <path d="M30,0 L30,20 L15,20 L0,10 L15,0 Z" class="cell_c_out"/>
    <g s:x="0" s:y="10" s:pid="A"/>
  </g>
  <g s:type="outputExt" transform="translate(281,149.5)" s:width="30" s:height="20" id="cell_sum">
    <text x="15" y="-4" class="nodelabel cell_sum" s:attribute="ref">sum</text>
    <s:alias val="$_outputExt_"/>
    <path d="M30,0 L30,20 L15,20 L0,10 L15,0 Z" class="cell_sum"/>
    <g s:x="0" s:y="10" s:pid="A"/>
  </g>
  <line x1="40" x2="62" y1="69.5" y2="69.5" class="net_3"/>
  <line x1="62" x2="62" y1="69.5" y2="17" class="net_3"/>
  <circle cx="62" cy="69.5" r="2" style="fill:#000" class="net_3"/>
  <line x1="62" x2="146" y1="17" y2="17" class="net_3"/>
  <line x1="40" x2="80" y1="69.5" y2="69.5" class="net_3"/>
  <line x1="40" x2="62" y1="69.5" y2="69.5" class="net_3"/>
  <line x1="62" x2="62" y1="69.5" y2="164.5" class="net_3"/>
  <line x1="62" x2="120" y1="164.5" y2="164.5" class="net_3"/>
  <line x1="120" x2="120" y1="164.5" y2="159.5" class="net_3"/>
  <line x1="120" x2="148" y1="159.5" y2="159.5" class="net_3"/>
  <line x1="40" x2="52" y1="134.5" y2="134.5" class="net_4"/>
  <line x1="52" x2="52" y1="134.5" y2="32" class="net_4"/>
  <circle cx="52" cy="134.5" r="2" style="fill:#000" class="net_4"/>
  <line x1="52" x2="146" y1="32" y2="32" class="net_4"/>
  <line x1="40" x2="52" y1="134.5" y2="134.5" class="net_4"/>
  <line x1="52" x2="52" y1="134.5" y2="84.5" class="net_4"/>
  <circle cx="52" cy="84.5" r="2" style="fill:#000" class="net_4"/>
  <line x1="52" x2="80" y1="84.5" y2="84.5" class="net_4"/>
  <line x1="40" x2="52" y1="134.5" y2="134.5" class="net_4"/>
  <line x1="52" x2="52" y1="134.5" y2="175.5" class="net_4"/>
  <line x1="52" x2="188" y1="175.5" y2="175.5" class="net_4"/>
  <line x1="188" x2="188" y1="175.5" y2="167" class="net_4"/>
  <line x1="188" x2="216" y1="167" y2="167" class="net_4"/>
  <line x1="110" x2="146" y1="77" y2="77" class="net_8"/>
  <line x1="108" x2="120" y1="144.5" y2="144.5" class="net_2"/>
  <line x1="120" x2="120" y1="144.5" y2="92" class="net_2"/>
  <circle cx="120" cy="144.5" r="2" style="fill:#000" class="net_2"/>
  <line x1="120" x2="146" y1="92" y2="92" class="net_2"/>
  <line x1="108" x2="148" y1="144.5" y2="144.5" class="net_2"/>
  <line x1="176" x2="217" y1="24.5" y2="24.5" class="net_7"/>
  <line x1="176" x2="188" y1="84.5" y2="84.5" class="net_9"/>
  <line x1="188" x2="188" y1="84.5" y2="39.5" class="net_9"/>
  <line x1="188" x2="217" y1="39.5" y2="39.5" class="net_9"/>
  <line x1="178" x2="216" y1="152" y2="152" class="net_10"/>
  <line x1="244" x2="281" y1="32" y2="32" class="net_5"/>
  <line x1="246" x2="281" y1="159.5" y2="159.5" class="net_6"/>
</svg>
